<mxfile host="Electron" agent="Mozilla/5.0 (Macintosh; Intel Mac OS X 10_15_7) AppleWebKit/537.36 (KHTML, like Gecko) draw.io/27.0.9 Chrome/134.0.6998.205 Electron/35.4.0 Safari/537.36" version="27.0.9">
  <diagram name="Page-1" id="Z71wbSZrjPQ_qVnSEKfd">
    <mxGraphModel dx="1426" dy="1379" grid="1" gridSize="10" guides="1" tooltips="1" connect="1" arrows="1" fold="1" page="1" pageScale="1" pageWidth="1654" pageHeight="1169" math="0" shadow="0">
      <root>
        <mxCell id="0" />
        <mxCell id="1" parent="0" />
        <mxCell id="f-lq4g3RorW7xj2yHw-G-1" value="&lt;b&gt;&lt;font style=&quot;font-size: 14px;&quot;&gt;Broker Websocket&lt;/font&gt;&lt;/b&gt;" style="rounded=0;whiteSpace=wrap;html=1;" vertex="1" parent="1">
          <mxGeometry x="120" y="119" width="160" height="40" as="geometry" />
        </mxCell>
        <mxCell id="f-lq4g3RorW7xj2yHw-G-2" value="PUSH" style="rounded=0;whiteSpace=wrap;html=1;fontStyle=1" vertex="1" parent="1">
          <mxGeometry x="120" y="159" width="160" height="40" as="geometry" />
        </mxCell>
        <mxCell id="f-lq4g3RorW7xj2yHw-G-3" value="&lt;b&gt;&lt;font style=&quot;font-size: 14px;&quot;&gt;Exchange Websocket&lt;/font&gt;&lt;/b&gt;" style="rounded=0;whiteSpace=wrap;html=1;" vertex="1" parent="1">
          <mxGeometry x="440" y="119" width="160" height="40" as="geometry" />
        </mxCell>
        <mxCell id="f-lq4g3RorW7xj2yHw-G-4" value="PUSH" style="rounded=0;whiteSpace=wrap;html=1;fontStyle=1" vertex="1" parent="1">
          <mxGeometry x="440" y="159" width="160" height="40" as="geometry" />
        </mxCell>
        <mxCell id="f-lq4g3RorW7xj2yHw-G-8" value="" style="endArrow=none;html=1;rounded=0;" edge="1" parent="1">
          <mxGeometry width="50" height="50" relative="1" as="geometry">
            <mxPoint x="200" y="239" as="sourcePoint" />
            <mxPoint x="200" y="198" as="targetPoint" />
          </mxGeometry>
        </mxCell>
        <mxCell id="f-lq4g3RorW7xj2yHw-G-9" value="" style="endArrow=none;html=1;rounded=0;" edge="1" parent="1">
          <mxGeometry width="50" height="50" relative="1" as="geometry">
            <mxPoint x="519" y="239" as="sourcePoint" />
            <mxPoint x="519.41" y="198" as="targetPoint" />
          </mxGeometry>
        </mxCell>
        <mxCell id="f-lq4g3RorW7xj2yHw-G-10" value="&lt;font style=&quot;font-size: 16px;&quot;&gt;&lt;b&gt;Data Engine (pfeed)&lt;/b&gt;&lt;/font&gt;" style="rounded=0;whiteSpace=wrap;html=1;" vertex="1" parent="1">
          <mxGeometry x="80" y="556" width="240" height="40" as="geometry" />
        </mxCell>
        <mxCell id="f-lq4g3RorW7xj2yHw-G-11" value="&lt;font style=&quot;font-size: 16px;&quot;&gt;&lt;b style=&quot;&quot;&gt;Trade Engine (pfund)&lt;/b&gt;&lt;/font&gt;" style="rounded=0;whiteSpace=wrap;html=1;" vertex="1" parent="1">
          <mxGeometry x="400" y="556" width="240" height="40" as="geometry" />
        </mxCell>
        <mxCell id="f-lq4g3RorW7xj2yHw-G-12" value="" style="endArrow=none;html=1;rounded=0;" edge="1" parent="1">
          <mxGeometry width="50" height="50" relative="1" as="geometry">
            <mxPoint x="120" y="239" as="sourcePoint" />
            <mxPoint x="600" y="239" as="targetPoint" />
          </mxGeometry>
        </mxCell>
        <mxCell id="f-lq4g3RorW7xj2yHw-G-18" value="" style="endArrow=none;html=1;rounded=0;" edge="1" parent="1">
          <mxGeometry width="50" height="50" relative="1" as="geometry">
            <mxPoint x="200" y="678" as="sourcePoint" />
            <mxPoint x="199.5" y="636" as="targetPoint" />
          </mxGeometry>
        </mxCell>
        <mxCell id="f-lq4g3RorW7xj2yHw-G-19" value="&lt;b&gt;&lt;font style=&quot;font-size: 14px;&quot;&gt;Strategy&lt;/font&gt;&lt;/b&gt;" style="rounded=0;whiteSpace=wrap;html=1;" vertex="1" parent="1">
          <mxGeometry x="120" y="799" width="160" height="40" as="geometry" />
        </mxCell>
        <mxCell id="f-lq4g3RorW7xj2yHw-G-20" value="PUSH" style="rounded=0;whiteSpace=wrap;html=1;fontStyle=1" vertex="1" parent="1">
          <mxGeometry x="120" y="839" width="160" height="40" as="geometry" />
        </mxCell>
        <mxCell id="f-lq4g3RorW7xj2yHw-G-21" value="SUB" style="rounded=0;whiteSpace=wrap;html=1;fontStyle=1" vertex="1" parent="1">
          <mxGeometry x="120" y="759" width="160" height="40" as="geometry" />
        </mxCell>
        <mxCell id="f-lq4g3RorW7xj2yHw-G-22" value="&lt;font style=&quot;font-size: 14px;&quot;&gt;Model&lt;/font&gt;" style="rounded=0;whiteSpace=wrap;html=1;fontStyle=1" vertex="1" parent="1">
          <mxGeometry x="440" y="799" width="160" height="40" as="geometry" />
        </mxCell>
        <mxCell id="f-lq4g3RorW7xj2yHw-G-23" value="PUSH" style="rounded=0;whiteSpace=wrap;html=1;fontStyle=1" vertex="1" parent="1">
          <mxGeometry x="440" y="839" width="160" height="40" as="geometry" />
        </mxCell>
        <mxCell id="f-lq4g3RorW7xj2yHw-G-24" value="SUB" style="rounded=0;whiteSpace=wrap;html=1;fontStyle=1" vertex="1" parent="1">
          <mxGeometry x="440" y="759" width="160" height="40" as="geometry" />
        </mxCell>
        <mxCell id="f-lq4g3RorW7xj2yHw-G-25" value="" style="endArrow=classic;html=1;rounded=0;" edge="1" parent="1">
          <mxGeometry relative="1" as="geometry">
            <mxPoint x="440" y="818" as="sourcePoint" />
            <mxPoint x="280" y="818.41" as="targetPoint" />
          </mxGeometry>
        </mxCell>
        <mxCell id="f-lq4g3RorW7xj2yHw-G-26" value="&lt;font style=&quot;font-size: 12px;&quot;&gt;predictions&lt;/font&gt;" style="edgeLabel;resizable=0;html=1;;align=center;verticalAlign=middle;" connectable="0" vertex="1" parent="f-lq4g3RorW7xj2yHw-G-25">
          <mxGeometry relative="1" as="geometry" />
        </mxCell>
        <mxCell id="f-lq4g3RorW7xj2yHw-G-27" value="&lt;b&gt;PUB&lt;/b&gt;" style="edgeLabel;resizable=0;html=1;;align=left;verticalAlign=bottom;" connectable="0" vertex="1" parent="f-lq4g3RorW7xj2yHw-G-25">
          <mxGeometry x="-1" relative="1" as="geometry" />
        </mxCell>
        <mxCell id="f-lq4g3RorW7xj2yHw-G-28" value="&lt;b&gt;SUB&lt;/b&gt;" style="edgeLabel;resizable=0;html=1;;align=right;verticalAlign=bottom;" connectable="0" vertex="1" parent="f-lq4g3RorW7xj2yHw-G-25">
          <mxGeometry x="1" relative="1" as="geometry" />
        </mxCell>
        <mxCell id="f-lq4g3RorW7xj2yHw-G-29" value="" style="endArrow=none;html=1;rounded=0;" edge="1" parent="1">
          <mxGeometry width="50" height="50" relative="1" as="geometry">
            <mxPoint x="200" y="679" as="sourcePoint" />
            <mxPoint x="260" y="679" as="targetPoint" />
          </mxGeometry>
        </mxCell>
        <mxCell id="f-lq4g3RorW7xj2yHw-G-30" value="" style="endArrow=none;html=1;rounded=0;" edge="1" parent="1">
          <mxGeometry width="50" height="50" relative="1" as="geometry">
            <mxPoint x="260" y="679" as="sourcePoint" />
            <mxPoint x="520" y="679" as="targetPoint" />
          </mxGeometry>
        </mxCell>
        <mxCell id="f-lq4g3RorW7xj2yHw-G-33" value="" style="endArrow=classic;html=1;rounded=0;entryX=0.75;entryY=0;entryDx=0;entryDy=0;" edge="1" parent="1">
          <mxGeometry relative="1" as="geometry">
            <mxPoint x="199.41" y="679" as="sourcePoint" />
            <mxPoint x="199.41" y="759" as="targetPoint" />
          </mxGeometry>
        </mxCell>
        <mxCell id="f-lq4g3RorW7xj2yHw-G-34" value="standardize data" style="edgeLabel;resizable=0;html=1;;align=center;verticalAlign=middle;fontSize=12;" connectable="0" vertex="1" parent="f-lq4g3RorW7xj2yHw-G-33">
          <mxGeometry relative="1" as="geometry" />
        </mxCell>
        <mxCell id="f-lq4g3RorW7xj2yHw-G-35" value="" style="endArrow=classic;html=1;rounded=0;entryX=0.75;entryY=0;entryDx=0;entryDy=0;" edge="1" parent="1">
          <mxGeometry relative="1" as="geometry">
            <mxPoint x="519.41" y="679" as="sourcePoint" />
            <mxPoint x="519.41" y="759" as="targetPoint" />
          </mxGeometry>
        </mxCell>
        <mxCell id="f-lq4g3RorW7xj2yHw-G-36" value="standardize&amp;nbsp;data" style="edgeLabel;resizable=0;html=1;;align=center;verticalAlign=middle;fontSize=12;" connectable="0" vertex="1" parent="f-lq4g3RorW7xj2yHw-G-35">
          <mxGeometry relative="1" as="geometry" />
        </mxCell>
        <mxCell id="f-lq4g3RorW7xj2yHw-G-37" value="" style="endArrow=classic;html=1;rounded=0;entryX=0.75;entryY=0;entryDx=0;entryDy=0;" edge="1" parent="1">
          <mxGeometry relative="1" as="geometry">
            <mxPoint x="199.5" y="879" as="sourcePoint" />
            <mxPoint x="199.5" y="959" as="targetPoint" />
          </mxGeometry>
        </mxCell>
        <mxCell id="f-lq4g3RorW7xj2yHw-G-38" value="orders" style="edgeLabel;resizable=0;html=1;;align=center;verticalAlign=middle;fontSize=12;" connectable="0" vertex="1" parent="f-lq4g3RorW7xj2yHw-G-37">
          <mxGeometry relative="1" as="geometry" />
        </mxCell>
        <mxCell id="f-lq4g3RorW7xj2yHw-G-39" value="" style="endArrow=none;html=1;rounded=0;" edge="1" parent="1">
          <mxGeometry width="50" height="50" relative="1" as="geometry">
            <mxPoint x="200" y="959" as="sourcePoint" />
            <mxPoint x="680" y="959" as="targetPoint" />
          </mxGeometry>
        </mxCell>
        <mxCell id="f-lq4g3RorW7xj2yHw-G-40" value="" style="endArrow=none;html=1;rounded=0;" edge="1" parent="1">
          <mxGeometry width="50" height="50" relative="1" as="geometry">
            <mxPoint x="680" y="958" as="sourcePoint" />
            <mxPoint x="680" y="617" as="targetPoint" />
          </mxGeometry>
        </mxCell>
        <mxCell id="f-lq4g3RorW7xj2yHw-G-41" value="" style="endArrow=classic;html=1;rounded=0;entryX=1;entryY=0.5;entryDx=0;entryDy=0;" edge="1" parent="1">
          <mxGeometry relative="1" as="geometry">
            <mxPoint x="680" y="617.5" as="sourcePoint" />
            <mxPoint x="600" y="617.5" as="targetPoint" />
          </mxGeometry>
        </mxCell>
        <mxCell id="f-lq4g3RorW7xj2yHw-G-42" value="&lt;font style=&quot;font-size: 12px;&quot;&gt;orders&lt;/font&gt;" style="edgeLabel;resizable=0;html=1;;align=center;verticalAlign=middle;" connectable="0" vertex="1" parent="f-lq4g3RorW7xj2yHw-G-41">
          <mxGeometry relative="1" as="geometry" />
        </mxCell>
        <mxCell id="f-lq4g3RorW7xj2yHw-G-43" value="XSUB" style="rounded=0;whiteSpace=wrap;html=1;fontStyle=1" vertex="1" parent="1">
          <mxGeometry x="120" y="516" width="160" height="40" as="geometry" />
        </mxCell>
        <mxCell id="f-lq4g3RorW7xj2yHw-G-44" value="XPUB" style="rounded=0;whiteSpace=wrap;html=1;fontStyle=1" vertex="1" parent="1">
          <mxGeometry x="120" y="596" width="160" height="40" as="geometry" />
        </mxCell>
        <mxCell id="f-lq4g3RorW7xj2yHw-G-45" value="PULL" style="rounded=0;whiteSpace=wrap;html=1;fontStyle=1" vertex="1" parent="1">
          <mxGeometry x="440" y="596" width="160" height="40" as="geometry" />
        </mxCell>
        <mxCell id="f-lq4g3RorW7xj2yHw-G-46" value="PUB" style="rounded=0;whiteSpace=wrap;html=1;fontStyle=1" vertex="1" parent="1">
          <mxGeometry x="440" y="516" width="160" height="40" as="geometry" />
        </mxCell>
        <mxCell id="f-lq4g3RorW7xj2yHw-G-48" value="" style="edgeStyle=orthogonalEdgeStyle;rounded=0;orthogonalLoop=1;jettySize=auto;html=1;" edge="1" parent="1" source="f-lq4g3RorW7xj2yHw-G-50" target="f-lq4g3RorW7xj2yHw-G-51">
          <mxGeometry relative="1" as="geometry" />
        </mxCell>
        <mxCell id="f-lq4g3RorW7xj2yHw-G-49" value="" style="edgeStyle=orthogonalEdgeStyle;rounded=0;orthogonalLoop=1;jettySize=auto;html=1;" edge="1" parent="1" source="f-lq4g3RorW7xj2yHw-G-50" target="f-lq4g3RorW7xj2yHw-G-52">
          <mxGeometry relative="1" as="geometry" />
        </mxCell>
        <mxCell id="f-lq4g3RorW7xj2yHw-G-50" value="&lt;font style=&quot;font-size: 16px;&quot; face=&quot;Verdana&quot;&gt;WebSocket Server&lt;/font&gt;" style="rounded=1;whiteSpace=wrap;html=1;" vertex="1" parent="1">
          <mxGeometry x="921" y="454" width="200" height="47" as="geometry" />
        </mxCell>
        <mxCell id="f-lq4g3RorW7xj2yHw-G-51" value="&lt;font style=&quot;font-size: 16px;&quot; face=&quot;Verdana&quot;&gt;Dashboard&lt;/font&gt;" style="whiteSpace=wrap;html=1;rounded=1;" vertex="1" parent="1">
          <mxGeometry x="841" y="584" width="159" height="40" as="geometry" />
        </mxCell>
        <mxCell id="f-lq4g3RorW7xj2yHw-G-52" value="&lt;font style=&quot;font-size: 16px;&quot; face=&quot;Verdana&quot;&gt;Data Recorder&lt;/font&gt;" style="whiteSpace=wrap;html=1;rounded=1;" vertex="1" parent="1">
          <mxGeometry x="1040" y="584" width="160" height="40" as="geometry" />
        </mxCell>
        <mxCell id="f-lq4g3RorW7xj2yHw-G-53" value="" style="endArrow=none;dashed=1;html=1;dashPattern=1 3;strokeWidth=2;rounded=0;" edge="1" parent="1">
          <mxGeometry width="50" height="50" relative="1" as="geometry">
            <mxPoint x="1210.0031249084504" y="623" as="sourcePoint" />
            <mxPoint x="1250.0031249084504" y="623" as="targetPoint" />
          </mxGeometry>
        </mxCell>
        <mxCell id="f-lq4g3RorW7xj2yHw-G-54" value="more listeners" style="text;html=1;align=center;verticalAlign=middle;whiteSpace=wrap;rounded=0;" vertex="1" parent="1">
          <mxGeometry x="1240.0031249084504" y="606" width="80" height="30" as="geometry" />
        </mxCell>
        <mxCell id="f-lq4g3RorW7xj2yHw-G-55" value="" style="endArrow=classic;html=1;rounded=0;dashed=1;dashPattern=8 8;entryX=0;entryY=0.5;entryDx=0;entryDy=0;" edge="1" parent="1" target="f-lq4g3RorW7xj2yHw-G-50">
          <mxGeometry relative="1" as="geometry">
            <mxPoint x="520" y="479" as="sourcePoint" />
            <mxPoint x="880" y="478" as="targetPoint" />
          </mxGeometry>
        </mxCell>
        <mxCell id="f-lq4g3RorW7xj2yHw-G-56" value="&lt;font style=&quot;font-size: 12px;&quot;&gt;telemetry to external listeners (optional)&lt;/font&gt;" style="edgeLabel;resizable=0;html=1;;align=center;verticalAlign=middle;" connectable="0" vertex="1" parent="f-lq4g3RorW7xj2yHw-G-55">
          <mxGeometry relative="1" as="geometry" />
        </mxCell>
        <mxCell id="f-lq4g3RorW7xj2yHw-G-57" value="&lt;font style=&quot;font-size: 14px;&quot;&gt;worker&lt;/font&gt;" style="rounded=0;whiteSpace=wrap;html=1;" vertex="1" parent="1">
          <mxGeometry x="80" y="319" width="80" height="40" as="geometry" />
        </mxCell>
        <mxCell id="f-lq4g3RorW7xj2yHw-G-60" value="" style="endArrow=classic;html=1;rounded=0;" edge="1" parent="1">
          <mxGeometry relative="1" as="geometry">
            <mxPoint x="120" y="239" as="sourcePoint" />
            <mxPoint x="120" y="319" as="targetPoint" />
          </mxGeometry>
        </mxCell>
        <mxCell id="f-lq4g3RorW7xj2yHw-G-61" value="raw data" style="edgeLabel;resizable=0;html=1;;align=center;verticalAlign=middle;fontSize=12;" connectable="0" vertex="1" parent="f-lq4g3RorW7xj2yHw-G-60">
          <mxGeometry relative="1" as="geometry" />
        </mxCell>
        <mxCell id="f-lq4g3RorW7xj2yHw-G-64" value="&lt;font style=&quot;font-size: 14px;&quot;&gt;worker&lt;/font&gt;" style="rounded=0;whiteSpace=wrap;html=1;" vertex="1" parent="1">
          <mxGeometry x="240" y="319" width="80" height="40" as="geometry" />
        </mxCell>
        <mxCell id="f-lq4g3RorW7xj2yHw-G-65" value="" style="endArrow=classic;html=1;rounded=0;" edge="1" parent="1">
          <mxGeometry relative="1" as="geometry">
            <mxPoint x="280" y="239" as="sourcePoint" />
            <mxPoint x="280" y="319" as="targetPoint" />
          </mxGeometry>
        </mxCell>
        <mxCell id="f-lq4g3RorW7xj2yHw-G-66" value="raw data" style="edgeLabel;resizable=0;html=1;;align=center;verticalAlign=middle;fontSize=12;" connectable="0" vertex="1" parent="f-lq4g3RorW7xj2yHw-G-65">
          <mxGeometry relative="1" as="geometry" />
        </mxCell>
        <mxCell id="f-lq4g3RorW7xj2yHw-G-67" value="&lt;font style=&quot;font-size: 14px;&quot;&gt;worker&lt;/font&gt;" style="rounded=0;whiteSpace=wrap;html=1;" vertex="1" parent="1">
          <mxGeometry x="400" y="319" width="80" height="40" as="geometry" />
        </mxCell>
        <mxCell id="f-lq4g3RorW7xj2yHw-G-68" value="" style="endArrow=classic;html=1;rounded=0;" edge="1" parent="1">
          <mxGeometry relative="1" as="geometry">
            <mxPoint x="440" y="239" as="sourcePoint" />
            <mxPoint x="440" y="319" as="targetPoint" />
          </mxGeometry>
        </mxCell>
        <mxCell id="f-lq4g3RorW7xj2yHw-G-69" value="raw data" style="edgeLabel;resizable=0;html=1;;align=center;verticalAlign=middle;fontSize=12;" connectable="0" vertex="1" parent="f-lq4g3RorW7xj2yHw-G-68">
          <mxGeometry relative="1" as="geometry" />
        </mxCell>
        <mxCell id="f-lq4g3RorW7xj2yHw-G-70" value="&lt;font style=&quot;font-size: 14px;&quot;&gt;worker&lt;/font&gt;" style="rounded=0;whiteSpace=wrap;html=1;" vertex="1" parent="1">
          <mxGeometry x="560" y="319" width="80" height="40" as="geometry" />
        </mxCell>
        <mxCell id="f-lq4g3RorW7xj2yHw-G-71" value="" style="endArrow=classic;html=1;rounded=0;" edge="1" parent="1">
          <mxGeometry relative="1" as="geometry">
            <mxPoint x="600" y="239" as="sourcePoint" />
            <mxPoint x="600" y="319" as="targetPoint" />
          </mxGeometry>
        </mxCell>
        <mxCell id="f-lq4g3RorW7xj2yHw-G-72" value="raw data" style="edgeLabel;resizable=0;html=1;;align=center;verticalAlign=middle;fontSize=12;" connectable="0" vertex="1" parent="f-lq4g3RorW7xj2yHw-G-71">
          <mxGeometry relative="1" as="geometry" />
        </mxCell>
        <mxCell id="f-lq4g3RorW7xj2yHw-G-73" value="" style="endArrow=none;html=1;rounded=0;" edge="1" parent="1">
          <mxGeometry width="50" height="50" relative="1" as="geometry">
            <mxPoint x="120" y="438" as="sourcePoint" />
            <mxPoint x="120" y="398" as="targetPoint" />
          </mxGeometry>
        </mxCell>
        <mxCell id="f-lq4g3RorW7xj2yHw-G-74" value="" style="endArrow=none;html=1;rounded=0;" edge="1" parent="1">
          <mxGeometry width="50" height="50" relative="1" as="geometry">
            <mxPoint x="279" y="438" as="sourcePoint" />
            <mxPoint x="279" y="398" as="targetPoint" />
          </mxGeometry>
        </mxCell>
        <mxCell id="f-lq4g3RorW7xj2yHw-G-77" value="" style="endArrow=none;html=1;rounded=0;" edge="1" parent="1">
          <mxGeometry width="50" height="50" relative="1" as="geometry">
            <mxPoint x="600" y="438" as="sourcePoint" />
            <mxPoint x="600" y="398" as="targetPoint" />
          </mxGeometry>
        </mxCell>
        <mxCell id="f-lq4g3RorW7xj2yHw-G-78" value="" style="endArrow=none;html=1;rounded=0;" edge="1" parent="1">
          <mxGeometry width="50" height="50" relative="1" as="geometry">
            <mxPoint x="439.5" y="438" as="sourcePoint" />
            <mxPoint x="439.5" y="398" as="targetPoint" />
          </mxGeometry>
        </mxCell>
        <mxCell id="f-lq4g3RorW7xj2yHw-G-79" value="" style="endArrow=none;html=1;rounded=0;" edge="1" parent="1">
          <mxGeometry width="50" height="50" relative="1" as="geometry">
            <mxPoint x="120" y="438" as="sourcePoint" />
            <mxPoint x="600" y="438" as="targetPoint" />
          </mxGeometry>
        </mxCell>
        <mxCell id="f-lq4g3RorW7xj2yHw-G-80" value="" style="endArrow=classic;html=1;rounded=0;" edge="1" parent="1">
          <mxGeometry relative="1" as="geometry">
            <mxPoint x="199.5" y="436" as="sourcePoint" />
            <mxPoint x="199.5" y="516" as="targetPoint" />
          </mxGeometry>
        </mxCell>
        <mxCell id="f-lq4g3RorW7xj2yHw-G-81" value="&lt;font style=&quot;font-size: 12px;&quot;&gt;standardized data&lt;/font&gt;" style="edgeLabel;resizable=0;html=1;;align=center;verticalAlign=middle;" connectable="0" vertex="1" parent="f-lq4g3RorW7xj2yHw-G-80">
          <mxGeometry relative="1" as="geometry" />
        </mxCell>
        <mxCell id="f-lq4g3RorW7xj2yHw-G-82" value="" style="endArrow=none;html=1;rounded=0;dashed=1;dashPattern=8 8;" edge="1" parent="1">
          <mxGeometry width="50" height="50" relative="1" as="geometry">
            <mxPoint x="520" y="516" as="sourcePoint" />
            <mxPoint x="520" y="478" as="targetPoint" />
          </mxGeometry>
        </mxCell>
        <mxCell id="f-lq4g3RorW7xj2yHw-G-84" value="" style="endArrow=classic;html=1;rounded=0;" edge="1" parent="1">
          <mxGeometry relative="1" as="geometry">
            <mxPoint x="600" y="537.5" as="sourcePoint" />
            <mxPoint x="760" y="538" as="targetPoint" />
          </mxGeometry>
        </mxCell>
        <mxCell id="f-lq4g3RorW7xj2yHw-G-85" value="&lt;font style=&quot;font-size: 12px;&quot;&gt;positions, balances, etc.&lt;/font&gt;" style="edgeLabel;resizable=0;html=1;;align=center;verticalAlign=middle;" connectable="0" vertex="1" parent="f-lq4g3RorW7xj2yHw-G-84">
          <mxGeometry relative="1" as="geometry" />
        </mxCell>
        <mxCell id="f-lq4g3RorW7xj2yHw-G-87" value="" style="endArrow=none;html=1;rounded=0;" edge="1" parent="1">
          <mxGeometry width="50" height="50" relative="1" as="geometry">
            <mxPoint x="760" y="1038" as="sourcePoint" />
            <mxPoint x="760" y="538" as="targetPoint" />
          </mxGeometry>
        </mxCell>
        <mxCell id="f-lq4g3RorW7xj2yHw-G-88" value="" style="endArrow=none;html=1;rounded=0;" edge="1" parent="1">
          <mxGeometry width="50" height="50" relative="1" as="geometry">
            <mxPoint x="80" y="1038" as="sourcePoint" />
            <mxPoint x="760" y="1038" as="targetPoint" />
          </mxGeometry>
        </mxCell>
        <mxCell id="f-lq4g3RorW7xj2yHw-G-95" value="" style="endArrow=none;html=1;rounded=0;startFill=0;" edge="1" parent="1">
          <mxGeometry relative="1" as="geometry">
            <mxPoint x="80" y="1038" as="sourcePoint" />
            <mxPoint x="80" y="778" as="targetPoint" />
          </mxGeometry>
        </mxCell>
        <mxCell id="f-lq4g3RorW7xj2yHw-G-96" value="&lt;font style=&quot;font-size: 12px;&quot;&gt;positions, balances, etc.&lt;/font&gt;" style="edgeLabel;resizable=0;html=1;;align=center;verticalAlign=middle;" connectable="0" vertex="1" parent="f-lq4g3RorW7xj2yHw-G-95">
          <mxGeometry relative="1" as="geometry" />
        </mxCell>
        <mxCell id="f-lq4g3RorW7xj2yHw-G-97" value="" style="endArrow=classic;html=1;rounded=0;" edge="1" parent="1">
          <mxGeometry width="50" height="50" relative="1" as="geometry">
            <mxPoint x="80" y="778.66" as="sourcePoint" />
            <mxPoint x="120" y="778.66" as="targetPoint" />
          </mxGeometry>
        </mxCell>
        <mxCell id="f-lq4g3RorW7xj2yHw-G-98" value="PUB" style="rounded=0;whiteSpace=wrap;html=1;fontStyle=1" vertex="1" parent="1">
          <mxGeometry x="560" y="359" width="80" height="40" as="geometry" />
        </mxCell>
        <mxCell id="f-lq4g3RorW7xj2yHw-G-99" value="PUB" style="rounded=0;whiteSpace=wrap;html=1;fontStyle=1" vertex="1" parent="1">
          <mxGeometry x="400" y="359" width="80" height="40" as="geometry" />
        </mxCell>
        <mxCell id="f-lq4g3RorW7xj2yHw-G-100" value="PUB" style="rounded=0;whiteSpace=wrap;html=1;fontStyle=1" vertex="1" parent="1">
          <mxGeometry x="240" y="359" width="80" height="40" as="geometry" />
        </mxCell>
        <mxCell id="f-lq4g3RorW7xj2yHw-G-101" value="PUB" style="rounded=0;whiteSpace=wrap;html=1;fontStyle=1" vertex="1" parent="1">
          <mxGeometry x="80" y="359" width="80" height="40" as="geometry" />
        </mxCell>
        <mxCell id="f-lq4g3RorW7xj2yHw-G-102" value="" style="endArrow=classic;html=1;rounded=0;entryX=0.75;entryY=0;entryDx=0;entryDy=0;" edge="1" parent="1">
          <mxGeometry relative="1" as="geometry">
            <mxPoint x="519.5" y="879" as="sourcePoint" />
            <mxPoint x="519.5" y="959" as="targetPoint" />
          </mxGeometry>
        </mxCell>
        <mxCell id="f-lq4g3RorW7xj2yHw-G-103" value="heartbeat" style="edgeLabel;resizable=0;html=1;;align=center;verticalAlign=middle;fontSize=12;" connectable="0" vertex="1" parent="f-lq4g3RorW7xj2yHw-G-102">
          <mxGeometry relative="1" as="geometry" />
        </mxCell>
      </root>
    </mxGraphModel>
  </diagram>
</mxfile>
